<mxfile host="app.diagrams.net" agent="Mozilla/5.0 (Windows NT 10.0; Win64; x64) AppleWebKit/537.36 (KHTML, like Gecko) Chrome/131.0.0.0 Safari/537.36" version="25.0.3">
  <diagram name="Page-1" id="G2bVK49X2XWENdSSJcSW">
    <mxGraphModel dx="880" dy="434" grid="1" gridSize="10" guides="1" tooltips="1" connect="1" arrows="1" fold="1" page="1" pageScale="1" pageWidth="827" pageHeight="1169" math="0" shadow="0">
      <root>
        <mxCell id="0" />
        <mxCell id="1" parent="0" />
        <mxCell id="Nie33L1LGUIJ3v2TZJb5-2" value="" style="ellipse;html=1;shape=endState;fillColor=#000000;strokeColor=#ff0000;" parent="1" vertex="1">
          <mxGeometry x="762" y="135" width="30" height="30" as="geometry" />
        </mxCell>
        <mxCell id="Nie33L1LGUIJ3v2TZJb5-4" value="Online" style="rounded=1;whiteSpace=wrap;html=1;" parent="1" vertex="1">
          <mxGeometry x="242" y="120" width="168" height="60" as="geometry" />
        </mxCell>
        <mxCell id="Nie33L1LGUIJ3v2TZJb5-5" value="" style="ellipse;html=1;shape=startState;fillColor=#000000;strokeColor=#ff0000;" parent="1" vertex="1">
          <mxGeometry x="87" y="135" width="30" height="30" as="geometry" />
        </mxCell>
        <mxCell id="Nie33L1LGUIJ3v2TZJb5-7" value="" style="endArrow=classic;html=1;rounded=0;exitX=1;exitY=0.5;exitDx=0;exitDy=0;entryX=0;entryY=0.5;entryDx=0;entryDy=0;" parent="1" source="Nie33L1LGUIJ3v2TZJb5-5" target="Nie33L1LGUIJ3v2TZJb5-4" edge="1">
          <mxGeometry width="50" height="50" relative="1" as="geometry">
            <mxPoint x="82" y="310" as="sourcePoint" />
            <mxPoint x="132" y="260" as="targetPoint" />
          </mxGeometry>
        </mxCell>
        <mxCell id="Nie33L1LGUIJ3v2TZJb5-10" value="Log In&lt;div&gt;&amp;amp;&lt;/div&gt;&lt;div&gt;Open User Page&lt;/div&gt;" style="edgeLabel;html=1;align=center;verticalAlign=middle;resizable=0;points=[];" parent="Nie33L1LGUIJ3v2TZJb5-7" vertex="1" connectable="0">
          <mxGeometry x="-0.18" y="2" relative="1" as="geometry">
            <mxPoint as="offset" />
          </mxGeometry>
        </mxCell>
        <mxCell id="Nie33L1LGUIJ3v2TZJb5-8" value="" style="endArrow=none;html=1;rounded=0;exitX=1;exitY=0.5;exitDx=0;exitDy=0;entryX=0;entryY=0.5;entryDx=0;entryDy=0;endFill=0;" parent="1" source="Nie33L1LGUIJ3v2TZJb5-4" target="Nie33L1LGUIJ3v2TZJb5-9" edge="1">
          <mxGeometry width="50" height="50" relative="1" as="geometry">
            <mxPoint x="392" y="149.5" as="sourcePoint" />
            <mxPoint x="502" y="150" as="targetPoint" />
          </mxGeometry>
        </mxCell>
        <mxCell id="Nie33L1LGUIJ3v2TZJb5-11" value="Log Out" style="edgeLabel;html=1;align=center;verticalAlign=middle;resizable=0;points=[];" parent="Nie33L1LGUIJ3v2TZJb5-8" vertex="1" connectable="0">
          <mxGeometry y="-1" relative="1" as="geometry">
            <mxPoint as="offset" />
          </mxGeometry>
        </mxCell>
        <mxCell id="Nie33L1LGUIJ3v2TZJb5-9" value="Offline" style="rounded=1;whiteSpace=wrap;html=1;" parent="1" vertex="1">
          <mxGeometry x="502" y="120" width="120" height="60" as="geometry" />
        </mxCell>
        <mxCell id="Nie33L1LGUIJ3v2TZJb5-14" value="" style="endArrow=classic;html=1;rounded=0;exitX=1;exitY=0.5;exitDx=0;exitDy=0;entryX=0;entryY=0.5;entryDx=0;entryDy=0;" parent="1" source="Nie33L1LGUIJ3v2TZJb5-9" target="Nie33L1LGUIJ3v2TZJb5-2" edge="1">
          <mxGeometry width="50" height="50" relative="1" as="geometry">
            <mxPoint x="642" y="290" as="sourcePoint" />
            <mxPoint x="692" y="240" as="targetPoint" />
          </mxGeometry>
        </mxCell>
        <mxCell id="Nie33L1LGUIJ3v2TZJb5-17" value="Return to Main Page" style="edgeLabel;html=1;align=center;verticalAlign=middle;resizable=0;points=[];" parent="Nie33L1LGUIJ3v2TZJb5-14" vertex="1" connectable="0">
          <mxGeometry x="-0.14" y="-1" relative="1" as="geometry">
            <mxPoint as="offset" />
          </mxGeometry>
        </mxCell>
        <mxCell id="Nie33L1LGUIJ3v2TZJb5-15" value="Main Page" style="text;html=1;align=center;verticalAlign=middle;resizable=0;points=[];autosize=1;strokeColor=none;fillColor=none;" parent="1" vertex="1">
          <mxGeometry x="62" y="158" width="80" height="30" as="geometry" />
        </mxCell>
        <mxCell id="Nie33L1LGUIJ3v2TZJb5-16" value="Main Page" style="text;html=1;align=center;verticalAlign=middle;resizable=0;points=[];autosize=1;strokeColor=none;fillColor=none;" parent="1" vertex="1">
          <mxGeometry x="737" y="158" width="80" height="30" as="geometry" />
        </mxCell>
        <mxCell id="Nie33L1LGUIJ3v2TZJb5-18" value="" style="endArrow=none;html=1;rounded=0;exitX=0.5;exitY=1;exitDx=0;exitDy=0;endFill=0;" parent="1" edge="1">
          <mxGeometry width="50" height="50" relative="1" as="geometry">
            <mxPoint x="250" y="180" as="sourcePoint" />
            <mxPoint x="250" y="400" as="targetPoint" />
          </mxGeometry>
        </mxCell>
        <mxCell id="Nie33L1LGUIJ3v2TZJb5-36" value="" style="endArrow=classic;html=1;rounded=0;entryX=0.935;entryY=1.05;entryDx=0;entryDy=0;entryPerimeter=0;" parent="1" target="Nie33L1LGUIJ3v2TZJb5-4" edge="1">
          <mxGeometry width="50" height="50" relative="1" as="geometry">
            <mxPoint x="400" y="360" as="sourcePoint" />
            <mxPoint x="440" y="360" as="targetPoint" />
          </mxGeometry>
        </mxCell>
        <mxCell id="Nie33L1LGUIJ3v2TZJb5-56" value="" style="endArrow=none;html=1;rounded=0;" parent="1" edge="1">
          <mxGeometry width="50" height="50" relative="1" as="geometry">
            <mxPoint x="250" y="220" as="sourcePoint" />
            <mxPoint x="400" y="220" as="targetPoint" />
          </mxGeometry>
        </mxCell>
        <mxCell id="Nie33L1LGUIJ3v2TZJb5-59" value="Press Show Profile" style="edgeLabel;html=1;align=center;verticalAlign=middle;resizable=0;points=[];" parent="Nie33L1LGUIJ3v2TZJb5-56" vertex="1" connectable="0">
          <mxGeometry x="-0.0133" y="-1" relative="1" as="geometry">
            <mxPoint as="offset" />
          </mxGeometry>
        </mxCell>
        <mxCell id="Nie33L1LGUIJ3v2TZJb5-60" value="" style="endArrow=none;html=1;rounded=0;" parent="1" edge="1">
          <mxGeometry width="50" height="50" relative="1" as="geometry">
            <mxPoint x="251" y="240" as="sourcePoint" />
            <mxPoint x="401" y="240" as="targetPoint" />
          </mxGeometry>
        </mxCell>
        <mxCell id="Nie33L1LGUIJ3v2TZJb5-61" value="Press Show&amp;nbsp; Friends&#39; Posts" style="edgeLabel;html=1;align=center;verticalAlign=middle;resizable=0;points=[];" parent="Nie33L1LGUIJ3v2TZJb5-60" vertex="1" connectable="0">
          <mxGeometry x="-0.0133" y="-1" relative="1" as="geometry">
            <mxPoint as="offset" />
          </mxGeometry>
        </mxCell>
        <mxCell id="Nie33L1LGUIJ3v2TZJb5-62" value="" style="endArrow=none;html=1;rounded=0;" parent="1" edge="1">
          <mxGeometry width="50" height="50" relative="1" as="geometry">
            <mxPoint x="251" y="280" as="sourcePoint" />
            <mxPoint x="401" y="280" as="targetPoint" />
          </mxGeometry>
        </mxCell>
        <mxCell id="Nie33L1LGUIJ3v2TZJb5-63" value="Press Create Content" style="edgeLabel;html=1;align=center;verticalAlign=middle;resizable=0;points=[];" parent="Nie33L1LGUIJ3v2TZJb5-62" vertex="1" connectable="0">
          <mxGeometry x="-0.0133" y="-1" relative="1" as="geometry">
            <mxPoint as="offset" />
          </mxGeometry>
        </mxCell>
        <mxCell id="Nie33L1LGUIJ3v2TZJb5-68" value="" style="endArrow=none;html=1;rounded=0;" parent="1" edge="1">
          <mxGeometry width="50" height="50" relative="1" as="geometry">
            <mxPoint x="251" y="260" as="sourcePoint" />
            <mxPoint x="401" y="260" as="targetPoint" />
          </mxGeometry>
        </mxCell>
        <mxCell id="Nie33L1LGUIJ3v2TZJb5-69" value="Press Show Friends&#39; Stories" style="edgeLabel;html=1;align=center;verticalAlign=middle;resizable=0;points=[];" parent="Nie33L1LGUIJ3v2TZJb5-68" vertex="1" connectable="0">
          <mxGeometry x="-0.0133" y="-1" relative="1" as="geometry">
            <mxPoint as="offset" />
          </mxGeometry>
        </mxCell>
        <mxCell id="Nie33L1LGUIJ3v2TZJb5-71" value="" style="endArrow=none;html=1;rounded=0;" parent="1" edge="1">
          <mxGeometry width="50" height="50" relative="1" as="geometry">
            <mxPoint x="251" y="300" as="sourcePoint" />
            <mxPoint x="401" y="300" as="targetPoint" />
          </mxGeometry>
        </mxCell>
        <mxCell id="Nie33L1LGUIJ3v2TZJb5-72" value="Press Add Friend" style="edgeLabel;html=1;align=center;verticalAlign=middle;resizable=0;points=[];" parent="Nie33L1LGUIJ3v2TZJb5-71" vertex="1" connectable="0">
          <mxGeometry x="-0.0133" y="-1" relative="1" as="geometry">
            <mxPoint as="offset" />
          </mxGeometry>
        </mxCell>
        <mxCell id="Nie33L1LGUIJ3v2TZJb5-79" value="" style="endArrow=none;html=1;rounded=0;" parent="1" edge="1">
          <mxGeometry width="50" height="50" relative="1" as="geometry">
            <mxPoint x="251" y="320" as="sourcePoint" />
            <mxPoint x="401" y="320" as="targetPoint" />
          </mxGeometry>
        </mxCell>
        <mxCell id="Nie33L1LGUIJ3v2TZJb5-80" value="Press Remove Friend" style="edgeLabel;html=1;align=center;verticalAlign=middle;resizable=0;points=[];" parent="Nie33L1LGUIJ3v2TZJb5-79" vertex="1" connectable="0">
          <mxGeometry x="-0.0133" y="-1" relative="1" as="geometry">
            <mxPoint as="offset" />
          </mxGeometry>
        </mxCell>
        <mxCell id="Nie33L1LGUIJ3v2TZJb5-83" value="" style="endArrow=none;html=1;rounded=0;" parent="1" edge="1">
          <mxGeometry width="50" height="50" relative="1" as="geometry">
            <mxPoint x="251" y="340" as="sourcePoint" />
            <mxPoint x="401" y="340" as="targetPoint" />
          </mxGeometry>
        </mxCell>
        <mxCell id="Nie33L1LGUIJ3v2TZJb5-84" value="Press Block Friend" style="edgeLabel;html=1;align=center;verticalAlign=middle;resizable=0;points=[];" parent="Nie33L1LGUIJ3v2TZJb5-83" vertex="1" connectable="0">
          <mxGeometry x="-0.0133" y="-1" relative="1" as="geometry">
            <mxPoint as="offset" />
          </mxGeometry>
        </mxCell>
        <mxCell id="Nie33L1LGUIJ3v2TZJb5-85" value="" style="endArrow=none;html=1;rounded=0;" parent="1" edge="1">
          <mxGeometry width="50" height="50" relative="1" as="geometry">
            <mxPoint x="251" y="360" as="sourcePoint" />
            <mxPoint x="401" y="360" as="targetPoint" />
          </mxGeometry>
        </mxCell>
        <mxCell id="Nie33L1LGUIJ3v2TZJb5-86" value="Press Remove Friend" style="edgeLabel;html=1;align=center;verticalAlign=middle;resizable=0;points=[];" parent="Nie33L1LGUIJ3v2TZJb5-85" vertex="1" connectable="0">
          <mxGeometry x="-0.0133" y="-1" relative="1" as="geometry">
            <mxPoint as="offset" />
          </mxGeometry>
        </mxCell>
        <mxCell id="OZT8Zwuk7Rhq_WpHH6JH-2" value="" style="ellipse;html=1;shape=startState;fillColor=#000000;strokeColor=#ff0000;" vertex="1" parent="1">
          <mxGeometry x="87" y="460" width="30" height="30" as="geometry" />
        </mxCell>
        <mxCell id="OZT8Zwuk7Rhq_WpHH6JH-3" value="" style="endArrow=classic;html=1;rounded=0;exitX=1;exitY=0.5;exitDx=0;exitDy=0;entryX=0;entryY=0.5;entryDx=0;entryDy=0;" edge="1" parent="1" source="OZT8Zwuk7Rhq_WpHH6JH-2" target="OZT8Zwuk7Rhq_WpHH6JH-4">
          <mxGeometry width="50" height="50" relative="1" as="geometry">
            <mxPoint x="150" y="530" as="sourcePoint" />
            <mxPoint x="200" y="475" as="targetPoint" />
          </mxGeometry>
        </mxCell>
        <mxCell id="OZT8Zwuk7Rhq_WpHH6JH-8" value="Send Request&amp;nbsp;&lt;div&gt;to Join&lt;/div&gt;" style="edgeLabel;html=1;align=center;verticalAlign=middle;resizable=0;points=[];" vertex="1" connectable="0" parent="OZT8Zwuk7Rhq_WpHH6JH-3">
          <mxGeometry x="-0.1566" y="-2" relative="1" as="geometry">
            <mxPoint as="offset" />
          </mxGeometry>
        </mxCell>
        <mxCell id="OZT8Zwuk7Rhq_WpHH6JH-4" value="Pending User" style="rounded=1;whiteSpace=wrap;html=1;" vertex="1" parent="1">
          <mxGeometry x="240" y="445" width="100" height="60" as="geometry" />
        </mxCell>
        <mxCell id="OZT8Zwuk7Rhq_WpHH6JH-5" value="" style="endArrow=classic;html=1;rounded=0;exitX=1;exitY=0.5;exitDx=0;exitDy=0;entryX=0;entryY=0.5;entryDx=0;entryDy=0;" edge="1" parent="1" source="OZT8Zwuk7Rhq_WpHH6JH-4" target="OZT8Zwuk7Rhq_WpHH6JH-7">
          <mxGeometry width="50" height="50" relative="1" as="geometry">
            <mxPoint x="410" y="520" as="sourcePoint" />
            <mxPoint x="490" y="475" as="targetPoint" />
          </mxGeometry>
        </mxCell>
        <mxCell id="OZT8Zwuk7Rhq_WpHH6JH-6" value="Admin Accepts Request" style="edgeLabel;html=1;align=center;verticalAlign=middle;resizable=0;points=[];" vertex="1" connectable="0" parent="OZT8Zwuk7Rhq_WpHH6JH-5">
          <mxGeometry x="-0.2714" relative="1" as="geometry">
            <mxPoint x="18" as="offset" />
          </mxGeometry>
        </mxCell>
        <mxCell id="OZT8Zwuk7Rhq_WpHH6JH-7" value="Member" style="rounded=1;whiteSpace=wrap;html=1;" vertex="1" parent="1">
          <mxGeometry x="490" y="445" width="120" height="60" as="geometry" />
        </mxCell>
        <mxCell id="OZT8Zwuk7Rhq_WpHH6JH-10" value="Admin" style="rounded=1;whiteSpace=wrap;html=1;" vertex="1" parent="1">
          <mxGeometry x="490" y="630" width="120" height="60" as="geometry" />
        </mxCell>
        <mxCell id="OZT8Zwuk7Rhq_WpHH6JH-11" value="" style="endArrow=classic;html=1;rounded=0;exitX=0.25;exitY=1;exitDx=0;exitDy=0;entryX=0.25;entryY=0;entryDx=0;entryDy=0;" edge="1" parent="1" source="OZT8Zwuk7Rhq_WpHH6JH-7" target="OZT8Zwuk7Rhq_WpHH6JH-10">
          <mxGeometry width="50" height="50" relative="1" as="geometry">
            <mxPoint x="400" y="600" as="sourcePoint" />
            <mxPoint x="450" y="550" as="targetPoint" />
          </mxGeometry>
        </mxCell>
        <mxCell id="OZT8Zwuk7Rhq_WpHH6JH-12" value="Primary&lt;div&gt;Admin&lt;/div&gt;&lt;div&gt;Promotion&lt;/div&gt;" style="edgeLabel;html=1;align=center;verticalAlign=middle;resizable=0;points=[];" vertex="1" connectable="0" parent="OZT8Zwuk7Rhq_WpHH6JH-11">
          <mxGeometry x="-0.552" relative="1" as="geometry">
            <mxPoint y="17" as="offset" />
          </mxGeometry>
        </mxCell>
        <mxCell id="OZT8Zwuk7Rhq_WpHH6JH-13" value="" style="endArrow=classic;html=1;rounded=0;entryX=0.75;entryY=1;entryDx=0;entryDy=0;exitX=0.75;exitY=0;exitDx=0;exitDy=0;" edge="1" parent="1" source="OZT8Zwuk7Rhq_WpHH6JH-10" target="OZT8Zwuk7Rhq_WpHH6JH-7">
          <mxGeometry width="50" height="50" relative="1" as="geometry">
            <mxPoint x="650" y="790" as="sourcePoint" />
            <mxPoint x="700" y="740" as="targetPoint" />
          </mxGeometry>
        </mxCell>
        <mxCell id="OZT8Zwuk7Rhq_WpHH6JH-16" value="Primary&lt;div&gt;Admin&lt;/div&gt;&lt;div&gt;Demotion&lt;/div&gt;" style="edgeLabel;html=1;align=center;verticalAlign=middle;resizable=0;points=[];" vertex="1" connectable="0" parent="OZT8Zwuk7Rhq_WpHH6JH-13">
          <mxGeometry x="0.2" relative="1" as="geometry">
            <mxPoint y="-5" as="offset" />
          </mxGeometry>
        </mxCell>
        <mxCell id="OZT8Zwuk7Rhq_WpHH6JH-15" value="Existing Group" style="text;html=1;align=center;verticalAlign=middle;resizable=0;points=[];autosize=1;strokeColor=none;fillColor=none;" vertex="1" parent="1">
          <mxGeometry x="52" y="490" width="100" height="30" as="geometry" />
        </mxCell>
        <mxCell id="OZT8Zwuk7Rhq_WpHH6JH-17" value="" style="endArrow=none;html=1;rounded=0;" edge="1" parent="1">
          <mxGeometry width="50" height="50" relative="1" as="geometry">
            <mxPoint x="250" y="400" as="sourcePoint" />
            <mxPoint x="430" y="400" as="targetPoint" />
          </mxGeometry>
        </mxCell>
        <mxCell id="OZT8Zwuk7Rhq_WpHH6JH-19" value="Create New Group" style="edgeLabel;html=1;align=center;verticalAlign=middle;resizable=0;points=[];" vertex="1" connectable="0" parent="OZT8Zwuk7Rhq_WpHH6JH-17">
          <mxGeometry x="-0.3111" y="-2" relative="1" as="geometry">
            <mxPoint x="14" y="-2" as="offset" />
          </mxGeometry>
        </mxCell>
        <mxCell id="OZT8Zwuk7Rhq_WpHH6JH-18" value="" style="endArrow=none;html=1;rounded=0;" edge="1" parent="1">
          <mxGeometry width="50" height="50" relative="1" as="geometry">
            <mxPoint x="430" y="360" as="sourcePoint" />
            <mxPoint x="430" y="400" as="targetPoint" />
          </mxGeometry>
        </mxCell>
        <mxCell id="OZT8Zwuk7Rhq_WpHH6JH-20" value="" style="endArrow=none;html=1;rounded=0;entryX=0;entryY=0.5;entryDx=0;entryDy=0;" edge="1" parent="1" target="OZT8Zwuk7Rhq_WpHH6JH-21">
          <mxGeometry width="50" height="50" relative="1" as="geometry">
            <mxPoint x="430" y="360" as="sourcePoint" />
            <mxPoint x="480" y="360" as="targetPoint" />
          </mxGeometry>
        </mxCell>
        <mxCell id="OZT8Zwuk7Rhq_WpHH6JH-21" value="Primary Admin" style="rounded=1;whiteSpace=wrap;html=1;" vertex="1" parent="1">
          <mxGeometry x="460" y="330" width="120" height="60" as="geometry" />
        </mxCell>
        <mxCell id="OZT8Zwuk7Rhq_WpHH6JH-22" value="" style="endArrow=none;html=1;rounded=0;exitX=0.5;exitY=0;exitDx=0;exitDy=0;" edge="1" parent="1" source="OZT8Zwuk7Rhq_WpHH6JH-21">
          <mxGeometry width="50" height="50" relative="1" as="geometry">
            <mxPoint x="480" y="320" as="sourcePoint" />
            <mxPoint x="400" y="360" as="targetPoint" />
            <Array as="points">
              <mxPoint x="520" y="290" />
              <mxPoint x="420" y="290" />
              <mxPoint x="420" y="360" />
            </Array>
          </mxGeometry>
        </mxCell>
        <mxCell id="OZT8Zwuk7Rhq_WpHH6JH-23" value="" style="endArrow=classic;html=1;rounded=0;exitX=1;exitY=0.5;exitDx=0;exitDy=0;entryX=0;entryY=0.5;entryDx=0;entryDy=0;" edge="1" parent="1" source="OZT8Zwuk7Rhq_WpHH6JH-21" target="OZT8Zwuk7Rhq_WpHH6JH-24">
          <mxGeometry width="50" height="50" relative="1" as="geometry">
            <mxPoint x="630" y="400" as="sourcePoint" />
            <mxPoint x="640" y="360" as="targetPoint" />
          </mxGeometry>
        </mxCell>
        <mxCell id="OZT8Zwuk7Rhq_WpHH6JH-24" value="" style="ellipse;html=1;shape=endState;fillColor=#000000;strokeColor=#ff0000;" vertex="1" parent="1">
          <mxGeometry x="640" y="345" width="30" height="30" as="geometry" />
        </mxCell>
        <mxCell id="OZT8Zwuk7Rhq_WpHH6JH-25" value="Existing Group" style="text;html=1;align=center;verticalAlign=middle;resizable=0;points=[];autosize=1;strokeColor=none;fillColor=none;" vertex="1" parent="1">
          <mxGeometry x="605" y="375" width="100" height="30" as="geometry" />
        </mxCell>
      </root>
    </mxGraphModel>
  </diagram>
</mxfile>
